<svg id="Layer_1" data-name="Layer 1" xmlns="http://www.w3.org/2000/svg" viewBox="0 0 512 512"><defs><style>.cls-1{fill:#fff;}</style></defs><g id="GitHub"><rect width="512" height="512" rx="128.11"/><path class="cls-1" d="M347.71,495c14,0,12,17,12,17h-182s-2-17,12-17c13,0,16-6,16-12l-1-50c-71,16-86-28-86-28-12-30-28-37-28-37-24-16,1-16,1-16,26,2,40,26,40,26,22,39,59,28,74,22,2-17,9-28,16-35-57-6-116-28-116-126,0-28,10-51,26-69-3-6-11-32,3-67,0,0,21-7,70,26a232.06,232.06,0,0,1,128,0c49-33,70-26,70-26,14,35,6,61,3,67,16,18,26,41,26,69,0,98-60,120-117,126,10,8,18,24,18,48l-1,70C331.71,489,334.71,495,347.71,495Z"/></g></svg>