<svg width="72" height="72" xmlns="http://www.w3.org/2000/svg"><rect id="backgroundrect" width="100%" height="100%" x="0" y="0" fill="none" stroke="none" style="" class=""/>
  
<g class="currentLayer" style=""><title>Layer 1</title><path d="M36.120784774422646,24.08141433703713 c-6.634304523468018,0 -12.048402786254883,5.414098262786865 -12.048402786254883,12.048402786254883 S29.48647691309452,48.1782199095469 36.120784774422646,48.1782199095469 S48.16918183863163,42.764123077271506 48.16918183863163,36.12981903064065 S42.755088821053505,24.08141433703713 36.120784774422646,24.08141433703713 zM72.25695802271366,36.12981903064065 c0,-4.989285945892334 0.04519280791282654,-9.933380126953125 -0.23500259220600128,-14.913625717163086 c-0.280195415019989,-5.784679412841797 -1.5998255014419556,-10.918582916259766 -5.829872131347656,-15.148630142211914 c-4.239085674285889,-4.239085674285889 -9.3639497756958,-5.549676895141602 -15.148630142211914,-5.829872131347656 c-4.989285945892334,-0.280195415019989 -9.933380126953125,-0.23500259220600128 -14.913625717163086,-0.23500259220600128 c-4.989285945892334,0 -9.933380126953125,-0.04519280791282654 -14.913625717163086,0.23500259220600128 c-5.784679412841797,0.280195415019989 -10.918582916259766,1.5998255014419556 -15.148630142211914,5.829872131347656 C1.8284785896539688,10.306646461365744 0.5178863555192947,15.431509132264182 0.23769104480743408,21.216189498780295 c-0.280195415019989,4.989285945892334 -0.23500259220600128,9.933380126953125 -0.23500259220600128,14.913625717163086 s-0.04519280791282654,9.933380126953125 0.23500259220600128,14.913625717163086 c0.280195415019989,5.784679412841797 1.5998255014419556,10.918582916259766 5.829872131347656,15.148630142211914 c4.239085674285889,4.239085674285889 9.3639497756958,5.549676895141602 15.148630142211914,5.829872131347656 c4.989285945892334,0.280195415019989 9.933380126953125,0.23500259220600128 14.913625717163086,0.23500259220600128 c4.989285945892334,0 9.933380126953125,0.04519280791282654 14.913625717163086,-0.23500259220600128 c5.784679412841797,-0.280195415019989 10.918582916259766,-1.5998255014419556 15.148630142211914,-5.829872131347656 c4.239085674285889,-4.239085674285889 5.549676895141602,-9.3639497756958 5.829872131347656,-15.148630142211914 c0.2892339825630188,-4.9802470207214355 0.23500259220600128,-9.924341201782227 0.23500259220600128,-14.913625717163086 zM36.120784774422646,54.66790878283791 c-10.258768081665039,0 -18.5380916595459,-8.279322624206543 -18.5380916595459,-18.5380916595459 S25.862014785408974,17.591725463746116 36.120784774422646,17.591725463746116 S54.658870711922646,25.871047134278342 54.658870711922646,36.12981903064065 S46.37955094873905,54.66790878283791 36.120784774422646,54.66790878283791 zm19.29732894897461,-33.505950927734375 c-2.395218849182129,0 -4.329471111297607,-1.934252142906189 -4.329471111297607,-4.329471111297607 s1.934252142906189,-4.329471111297607 4.329471111297607,-4.329471111297607 s4.329471111297607,1.934252142906189 4.329471111297607,4.329471111297607 a4.324047565460205,4.324047565460205 0 0 1 -4.329471111297607,4.329471111297607 z" id="svg_1" class=""/></g></svg>